<svg width="277" height="84" viewBox="0 0 277 84" fill="none" xmlns="http://www.w3.org/2000/svg">
<path d="M56.8454 78.5668C37.3454 78.5668 32.8454 72.3168 32.2204 41.5668C31.7503 18.4364 11.563 11.6829 1.36255 11.096C13.4704 36.6918 2.00807 45.0104 5.2204 59.9418C11.9704 91.3168 45.4704 84.1918 56.8454 78.5668Z" fill="white"/>
<path d="M42.7204 27.8168C49.3453 14.8168 63.9287 11.4418 71.3454 11.3168C61.3454 20.0168 65.262 42.0251 68.4704 51.9418C71.6787 61.8584 66.3204 77.9418 50.7204 75.4418C31.2204 72.3168 34.8473 43.2658 42.7204 27.8168Z" fill="white"/>
<path fill-rule="evenodd" clip-rule="evenodd" d="M23.0317 14.8182C25.3864 10.3416 28.0506 6.33072 30.3765 3.15406C33.4424 -1.03334 39.3606 -1.05588 42.4504 3.11396C44.7017 6.15226 47.264 9.96026 49.5541 14.2167C45.504 16.9997 41.7975 20.8182 39.1565 26.0005C37.81 28.6429 36.5787 31.6512 35.5464 34.8615C33.8027 25.6726 28.9039 19.1758 23.0317 14.8182ZM32.9835 61.0382C32.9052 60.9997 32.8274 60.9598 32.7501 60.9185C12.6728 50.1717 14.7625 32.6497 21.2335 18.4757C27.2439 23.1621 31.9951 30.4849 32.2204 41.5668C32.2825 44.6235 32.3829 47.4381 32.5325 50.0285C32.3725 52.2094 32.342 54.3732 32.462 56.4785C32.5493 58.0094 32.7179 59.5373 32.9835 61.0382ZM51.3745 17.8342C57.9805 31.9557 60.282 49.6538 40.0063 60.8652C39.3411 61.233 38.6318 61.4939 37.904 61.6473C37.7739 61.0219 37.651 60.3622 37.5356 59.6661C37.084 56.9438 36.7617 53.7692 36.5414 50.0619C37.1617 42.1489 39.6096 33.921 42.7204 27.8168C44.9151 23.5103 47.983 20.26 51.3745 17.8342Z" fill="white"/>
<path d="M102.926 40.3714C100.762 40.3714 99.1018 39.6644 97.9449 38.2503V39.2466C97.9449 39.4608 97.8699 39.6537 97.7199 39.8251C97.5699 39.975 97.3771 40.05 97.1414 40.05H93.3171C93.0814 40.05 92.8779 39.975 92.7065 39.8251C92.5565 39.6751 92.4815 39.4823 92.4815 39.2466V18.0358C92.4815 17.8001 92.5565 17.6073 92.7065 17.4573C92.8779 17.3074 93.0814 17.2324 93.3171 17.2324H97.4628C97.6985 17.2324 97.8913 17.3074 98.0413 17.4573C98.1913 17.6073 98.2663 17.8001 98.2663 18.0358V24.8811C99.4446 23.6384 100.998 23.0171 102.926 23.0171C104.983 23.0171 106.611 23.692 107.811 25.0418C109.011 26.3701 109.654 28.202 109.739 30.5373C109.761 30.8158 109.771 31.2015 109.771 31.6943C109.771 32.1656 109.761 32.5405 109.739 32.8191C109.654 35.2401 109.011 37.1041 107.811 38.411C106.633 39.7179 105.004 40.3714 102.926 40.3714ZM101.062 35.9043C102.026 35.9043 102.712 35.6258 103.119 35.0687C103.548 34.4902 103.794 33.6975 103.858 32.6905C103.88 32.4763 103.89 32.1442 103.89 31.6943C103.89 31.2443 103.88 30.9122 103.858 30.698C103.794 29.691 103.548 28.909 103.119 28.352C102.712 27.7735 102.026 27.4842 101.062 27.4842C100.162 27.4842 99.4768 27.7628 99.0054 28.3198C98.5555 28.8554 98.3091 29.541 98.2663 30.3766C98.2448 30.6551 98.2341 31.0515 98.2341 31.5657C98.2341 32.0799 98.2448 32.487 98.2663 32.7869C98.3091 33.6868 98.5555 34.4367 99.0054 35.0366C99.4553 35.615 100.141 35.9043 101.062 35.9043ZM120.691 40.3714C118.078 40.3714 116.021 39.6751 114.521 38.2825C113.021 36.8684 112.25 34.8223 112.207 32.1442V31.1479C112.293 28.5983 113.086 26.6058 114.585 25.1703C116.085 23.7349 118.11 23.0171 120.659 23.0171C122.502 23.0171 124.055 23.3921 125.319 24.1419C126.605 24.8704 127.558 25.8881 128.18 27.195C128.822 28.4805 129.144 29.9481 129.144 31.5978V32.4013C129.144 32.637 129.058 32.8405 128.887 33.0119C128.737 33.1619 128.544 33.2369 128.308 33.2369H118.12V33.4297C118.142 34.3938 118.367 35.1758 118.795 35.7757C119.224 36.3542 119.834 36.6434 120.627 36.6434C121.141 36.6434 121.548 36.547 121.848 36.3542C122.17 36.14 122.47 35.8721 122.748 35.5508C122.941 35.3365 123.091 35.208 123.198 35.1651C123.327 35.1008 123.52 35.0687 123.777 35.0687H127.987C128.18 35.0687 128.34 35.133 128.469 35.2615C128.619 35.3686 128.694 35.5079 128.694 35.6793C128.694 36.2364 128.372 36.8898 127.73 37.6397C127.108 38.3896 126.187 39.0323 124.966 39.568C123.766 40.1036 122.341 40.3714 120.691 40.3714ZM123.23 29.9588V29.8946C123.23 28.8662 123.005 28.0734 122.555 27.5164C122.106 26.9379 121.473 26.6487 120.659 26.6487C119.845 26.6487 119.213 26.9379 118.763 27.5164C118.335 28.0734 118.12 28.8662 118.12 29.8946V29.9588H123.23ZM136.216 40.05C135.916 40.05 135.68 39.9857 135.509 39.8572C135.359 39.7072 135.241 39.5037 135.155 39.2466L130.527 24.3669L130.463 24.0777C130.463 23.8634 130.538 23.692 130.688 23.5635C130.838 23.4135 131.009 23.3385 131.202 23.3385H134.705C134.962 23.3385 135.177 23.4135 135.348 23.5635C135.519 23.692 135.626 23.842 135.669 24.0134L138.305 32.9155L141.101 24.0777C141.143 23.8848 141.251 23.7134 141.422 23.5635C141.593 23.4135 141.818 23.3385 142.097 23.3385H144.314C144.593 23.3385 144.818 23.4135 144.989 23.5635C145.161 23.7134 145.278 23.8848 145.343 24.0777L148.139 32.9155L150.742 24.0134C150.806 23.842 150.913 23.692 151.063 23.5635C151.235 23.4135 151.449 23.3385 151.706 23.3385H155.209C155.423 23.3385 155.595 23.4135 155.723 23.5635C155.873 23.692 155.948 23.8634 155.948 24.0777C155.948 24.1848 155.937 24.2812 155.916 24.3669L151.256 39.2466C151.106 39.7822 150.763 40.05 150.228 40.05H147.175C146.639 40.05 146.275 39.7822 146.082 39.2466L143.222 30.698L140.329 39.2466C140.179 39.7822 139.826 40.05 139.269 40.05H136.216ZM165.885 40.3714C163.271 40.3714 161.214 39.6751 159.714 38.2825C158.215 36.8684 157.443 34.8223 157.401 32.1442V31.1479C157.486 28.5983 158.279 26.6058 159.779 25.1703C161.279 23.7349 163.303 23.0171 165.853 23.0171C167.695 23.0171 169.249 23.3921 170.513 24.1419C171.798 24.8704 172.752 25.8881 173.373 27.195C174.016 28.4805 174.337 29.9481 174.337 31.5978V32.4013C174.337 32.637 174.251 32.8405 174.08 33.0119C173.93 33.1619 173.737 33.2369 173.501 33.2369H163.314V33.4297C163.335 34.3938 163.56 35.1758 163.989 35.7757C164.417 36.3542 165.028 36.6434 165.821 36.6434C166.335 36.6434 166.742 36.547 167.042 36.3542C167.363 36.14 167.663 35.8721 167.942 35.5508C168.135 35.3365 168.284 35.208 168.392 35.1651C168.52 35.1008 168.713 35.0687 168.97 35.0687H173.18C173.373 35.0687 173.534 35.133 173.662 35.2615C173.812 35.3686 173.887 35.5079 173.887 35.6793C173.887 36.2364 173.566 36.8898 172.923 37.6397C172.302 38.3896 171.38 39.0323 170.159 39.568C168.959 40.1036 167.535 40.3714 165.885 40.3714ZM168.424 29.9588V29.8946C168.424 28.8662 168.199 28.0734 167.749 27.5164C167.299 26.9379 166.667 26.6487 165.853 26.6487C165.039 26.6487 164.407 26.9379 163.957 27.5164C163.528 28.0734 163.314 28.8662 163.314 29.8946V29.9588H168.424ZM185.575 47.1203C183.518 47.1203 181.847 46.7882 180.561 46.124C179.276 45.4598 178.355 44.6885 177.798 43.8101C177.241 42.9531 176.962 42.2354 176.962 41.6569C176.962 41.4426 177.048 41.2605 177.219 41.1106C177.391 40.9606 177.583 40.8856 177.798 40.8856H182.104C182.318 40.8856 182.49 40.9284 182.618 41.0141C182.747 41.1213 182.865 41.2927 182.972 41.5283C183.186 41.9997 183.465 42.3639 183.807 42.621C184.15 42.8995 184.686 43.0388 185.414 43.0388C186.336 43.0388 187.021 42.8031 187.471 42.3318C187.921 41.8819 188.146 41.1213 188.146 40.05V37.8968C187.01 39.0752 185.457 39.6644 183.486 39.6644C181.322 39.6644 179.662 39.043 178.505 37.8004C177.369 36.5363 176.748 34.683 176.641 32.2406L176.609 31.3729C176.609 28.759 177.187 26.7129 178.344 25.2346C179.522 23.7563 181.236 23.0171 183.486 23.0171C184.579 23.0171 185.543 23.2314 186.378 23.6599C187.214 24.0669 187.91 24.624 188.467 25.331V24.1741C188.467 23.9384 188.542 23.7456 188.692 23.5956C188.842 23.4242 189.035 23.3385 189.271 23.3385H193.192C193.427 23.3385 193.62 23.4242 193.77 23.5956C193.941 23.7456 194.027 23.9384 194.027 24.1741V39.568C194.027 42.0318 193.288 43.9065 191.81 45.192C190.331 46.4775 188.253 47.1203 185.575 47.1203ZM185.318 35.3258C186.239 35.3258 186.925 35.0473 187.375 34.4902C187.825 33.9332 188.082 33.2261 188.146 32.3691C188.167 32.2192 188.178 31.8978 188.178 31.405C188.178 30.8908 188.167 30.5694 188.146 30.4409C188.082 29.5625 187.825 28.8554 187.375 28.3198C186.925 27.7628 186.239 27.4842 185.318 27.4842C184.375 27.4842 183.69 27.7735 183.261 28.352C182.833 28.909 182.597 29.691 182.554 30.698L182.522 31.405C182.522 32.6262 182.725 33.5904 183.132 34.2974C183.54 34.983 184.268 35.3258 185.318 35.3258ZM198.517 21.0246C198.281 21.0246 198.088 20.9496 197.938 20.7996C197.788 20.6282 197.713 20.4247 197.713 20.189V17.2002C197.713 16.9646 197.788 16.7717 197.938 16.6218C198.109 16.4504 198.302 16.3647 198.517 16.3647H202.534C202.769 16.3647 202.962 16.4504 203.112 16.6218C203.284 16.7717 203.369 16.9646 203.369 17.2002V20.189C203.369 20.4247 203.284 20.6282 203.112 20.7996C202.962 20.9496 202.769 21.0246 202.534 21.0246H198.517ZM198.517 40.05C198.302 40.05 198.109 39.975 197.938 39.8251C197.788 39.6537 197.713 39.4608 197.713 39.2466V24.1419C197.713 23.9063 197.788 23.7134 197.938 23.5635C198.109 23.4135 198.302 23.3385 198.517 23.3385H202.534C202.769 23.3385 202.962 23.4135 203.112 23.5635C203.284 23.7134 203.369 23.9063 203.369 24.1419V39.2466C203.369 39.4823 203.284 39.6751 203.112 39.8251C202.962 39.975 202.769 40.05 202.534 40.05H198.517ZM207.838 40.05C207.623 40.05 207.431 39.975 207.259 39.8251C207.109 39.6537 207.034 39.4608 207.034 39.2466V24.1419C207.034 23.9063 207.109 23.7134 207.259 23.5635C207.431 23.4135 207.623 23.3385 207.838 23.3385H211.791C212.026 23.3385 212.219 23.4135 212.369 23.5635C212.519 23.7134 212.594 23.9063 212.594 24.1419V25.3632C213.173 24.6561 213.912 24.0884 214.812 23.6599C215.733 23.2314 216.783 23.0171 217.961 23.0171C219.182 23.0171 220.264 23.2956 221.207 23.8527C222.171 24.4097 222.921 25.2346 223.457 26.3273C224.014 27.42 224.292 28.7376 224.292 30.2802V39.2466C224.292 39.4608 224.217 39.6537 224.067 39.8251C223.917 39.975 223.724 40.05 223.489 40.05H219.214C218.979 40.05 218.775 39.975 218.604 39.8251C218.454 39.6751 218.379 39.4823 218.379 39.2466V30.473C218.379 29.5089 218.143 28.7697 217.672 28.2555C217.222 27.7413 216.558 27.4842 215.679 27.4842C214.822 27.4842 214.147 27.7521 213.655 28.2877C213.162 28.8019 212.915 29.5303 212.915 30.473V39.2466C212.915 39.4608 212.84 39.6537 212.69 39.8251C212.54 39.975 212.348 40.05 212.112 40.05H207.838ZM236.166 47.1203C234.11 47.1203 232.438 46.7882 231.153 46.124C229.867 45.4598 228.946 44.6885 228.389 43.8101C227.832 42.9531 227.554 42.2354 227.554 41.6569C227.554 41.4426 227.639 41.2605 227.811 41.1106C227.982 40.9606 228.175 40.8856 228.389 40.8856H232.696C232.91 40.8856 233.081 40.9284 233.21 41.0141C233.338 41.1213 233.456 41.2927 233.563 41.5283C233.778 41.9997 234.056 42.3639 234.399 42.621C234.742 42.8995 235.277 43.0388 236.006 43.0388C236.927 43.0388 237.613 42.8031 238.063 42.3318C238.512 41.8819 238.737 41.1213 238.737 40.05V37.8968C237.602 39.0752 236.049 39.6644 234.077 39.6644C231.914 39.6644 230.253 39.043 229.096 37.8004C227.961 36.5363 227.339 34.683 227.232 32.2406L227.2 31.3729C227.2 28.759 227.779 26.7129 228.935 25.2346C230.114 23.7563 231.828 23.0171 234.077 23.0171C235.17 23.0171 236.134 23.2314 236.97 23.6599C237.805 24.0669 238.502 24.624 239.059 25.331V24.1741C239.059 23.9384 239.134 23.7456 239.284 23.5956C239.434 23.4242 239.627 23.3385 239.862 23.3385H243.783C244.019 23.3385 244.212 23.4242 244.361 23.5956C244.533 23.7456 244.619 23.9384 244.619 24.1741V39.568C244.619 42.0318 243.879 43.9065 242.401 45.192C240.923 46.4775 238.845 47.1203 236.166 47.1203ZM235.909 35.3258C236.831 35.3258 237.516 35.0473 237.966 34.4902C238.416 33.9332 238.673 33.2261 238.737 32.3691C238.759 32.2192 238.77 31.8978 238.77 31.405C238.77 30.8908 238.759 30.5694 238.737 30.4409C238.673 29.5625 238.416 28.8554 237.966 28.3198C237.516 27.7628 236.831 27.4842 235.909 27.4842C234.967 27.4842 234.281 27.7735 233.853 28.352C233.424 28.909 233.188 29.691 233.145 30.698L233.113 31.405C233.113 32.6262 233.317 33.5904 233.724 34.2974C234.131 34.983 234.859 35.3258 235.909 35.3258ZM98.4591 69.05C98.1591 69.05 97.9235 68.9857 97.7521 68.8572C97.6021 68.7072 97.4735 68.5037 97.3664 68.2466L91.2603 53.3348C91.2388 53.2705 91.2281 53.1848 91.2281 53.0777C91.2281 52.8634 91.2924 52.692 91.421 52.5635C91.5709 52.4135 91.753 52.3385 91.9673 52.3385H95.7917C96.2416 52.3385 96.563 52.5635 96.7558 53.0134L100.259 62.6225L103.794 53.0134C103.858 52.842 103.965 52.692 104.115 52.5635C104.265 52.4135 104.469 52.3385 104.726 52.3385H108.582C108.775 52.3385 108.947 52.4135 109.097 52.5635C109.247 52.692 109.322 52.8634 109.322 53.0777L109.257 53.3348L103.183 68.2466C103.076 68.5037 102.937 68.7072 102.766 68.8572C102.594 68.9857 102.358 69.05 102.058 69.05H98.4591ZM119.127 69.3714C116.427 69.3714 114.349 68.7501 112.892 67.5074C111.457 66.2433 110.675 64.4544 110.546 62.1404C110.525 61.8619 110.514 61.3799 110.514 60.6943C110.514 60.0087 110.525 59.5266 110.546 59.2481C110.675 56.977 111.478 55.2095 112.956 53.9454C114.456 52.6599 116.513 52.0171 119.127 52.0171C121.741 52.0171 123.787 52.6599 125.265 53.9454C126.765 55.2095 127.579 56.977 127.708 59.2481C127.75 59.8051 127.772 60.2872 127.772 60.6943C127.772 61.1013 127.75 61.5834 127.708 62.1404C127.579 64.4544 126.786 66.2433 125.329 67.5074C123.894 68.7501 121.826 69.3714 119.127 69.3714ZM119.127 65.3221C120.005 65.3221 120.659 65.0543 121.087 64.5186C121.516 63.9616 121.762 63.1153 121.826 61.9798C121.848 61.7655 121.858 61.337 121.858 60.6943C121.858 60.0515 121.848 59.623 121.826 59.4088C121.762 58.2947 121.516 57.4591 121.087 56.902C120.659 56.345 120.005 56.0665 119.127 56.0665C118.248 56.0665 117.595 56.345 117.166 56.902C116.738 57.4591 116.492 58.2947 116.427 59.4088L116.395 60.6943L116.427 61.9798C116.492 63.1153 116.738 63.9616 117.166 64.5186C117.595 65.0543 118.248 65.3221 119.127 65.3221ZM138.868 69.3714C136.168 69.3714 134.09 68.7501 132.633 67.5074C131.197 66.2433 130.415 64.4544 130.287 62.1404C130.265 61.8619 130.255 61.3799 130.255 60.6943C130.255 60.0087 130.265 59.5266 130.287 59.2481C130.415 56.977 131.219 55.2095 132.697 53.9454C134.197 52.6599 136.254 52.0171 138.868 52.0171C141.481 52.0171 143.527 52.6599 145.006 53.9454C146.506 55.2095 147.32 56.977 147.448 59.2481C147.491 59.8051 147.513 60.2872 147.513 60.6943C147.513 61.1013 147.491 61.5834 147.448 62.1404C147.32 64.4544 146.527 66.2433 145.07 67.5074C143.635 68.7501 141.567 69.3714 138.868 69.3714ZM138.868 65.3221C139.746 65.3221 140.399 65.0543 140.828 64.5186C141.256 63.9616 141.503 63.1153 141.567 61.9798C141.588 61.7655 141.599 61.337 141.599 60.6943C141.599 60.0515 141.588 59.623 141.567 59.4088C141.503 58.2947 141.256 57.4591 140.828 56.902C140.399 56.345 139.746 56.0665 138.868 56.0665C137.989 56.0665 137.336 56.345 136.907 56.902C136.479 57.4591 136.232 58.2947 136.168 59.4088L136.136 60.6943L136.168 61.9798C136.232 63.1153 136.479 63.9616 136.907 64.5186C137.336 65.0543 137.989 65.3221 138.868 65.3221ZM151.377 69.05C151.163 69.05 150.97 68.975 150.799 68.8251C150.649 68.6537 150.574 68.4608 150.574 68.2466V53.1741C150.574 52.9384 150.649 52.7456 150.799 52.5956C150.949 52.4242 151.142 52.3385 151.377 52.3385H155.298C155.534 52.3385 155.727 52.4242 155.877 52.5956C156.048 52.7456 156.134 52.9384 156.134 53.1741V54.3953C156.734 53.7311 157.43 53.2276 158.223 52.8848C159.037 52.5206 159.937 52.3385 160.922 52.3385H162.368C162.604 52.3385 162.797 52.4135 162.947 52.5635C163.097 52.7134 163.172 52.9063 163.172 53.1419V56.6449C163.172 56.8592 163.097 57.052 162.947 57.2234C162.797 57.3734 162.604 57.4484 162.368 57.4484H159.122C158.265 57.4484 157.601 57.684 157.13 58.1554C156.68 58.6267 156.455 59.2909 156.455 60.1479V68.2466C156.455 68.4823 156.369 68.6751 156.198 68.8251C156.048 68.975 155.855 69.05 155.619 69.05H151.377ZM170.079 69.05C169.779 69.05 169.544 68.9857 169.372 68.8572C169.222 68.7072 169.105 68.5037 169.019 68.2466L164.391 53.3669L164.327 53.0777C164.327 52.8634 164.402 52.692 164.552 52.5635C164.702 52.4135 164.873 52.3385 165.066 52.3385H168.569C168.826 52.3385 169.04 52.4135 169.212 52.5635C169.383 52.692 169.49 52.842 169.533 53.0134L172.168 61.9155L174.964 53.0777C175.007 52.8848 175.114 52.7134 175.286 52.5635C175.457 52.4135 175.682 52.3385 175.961 52.3385H178.178C178.457 52.3385 178.681 52.4135 178.853 52.5635C179.024 52.7134 179.142 52.8848 179.206 53.0777L182.002 61.9155L184.606 53.0134C184.67 52.842 184.777 52.692 184.927 52.5635C185.098 52.4135 185.313 52.3385 185.57 52.3385H189.073C189.287 52.3385 189.458 52.4135 189.587 52.5635C189.737 52.692 189.812 52.8634 189.812 53.0777C189.812 53.1848 189.801 53.2812 189.78 53.3669L185.12 68.2466C184.97 68.7822 184.627 69.05 184.091 69.05H181.038C180.503 69.05 180.138 68.7822 179.946 68.2466L177.085 59.698L174.193 68.2466C174.043 68.7822 173.689 69.05 173.132 69.05H170.079ZM196.89 69.3714C195.754 69.3714 194.715 69.1571 193.772 68.7286C192.851 68.2787 192.123 67.6681 191.587 66.8968C191.073 66.1255 190.816 65.2792 190.816 64.3579C190.816 62.901 191.416 61.7227 192.616 60.8228C193.837 59.9015 195.508 59.2695 197.629 58.9267L201.614 58.3161V57.9304C201.614 57.1377 201.453 56.5592 201.132 56.195C200.811 55.8308 200.264 55.6487 199.493 55.6487C199.064 55.6487 198.7 55.7237 198.4 55.8736C198.122 56.0236 197.8 56.2486 197.436 56.5485C197.158 56.7842 196.911 56.9556 196.697 57.0627C196.611 57.2127 196.504 57.2877 196.376 57.2877H192.648C192.433 57.2877 192.251 57.2234 192.101 57.0949C191.973 56.9449 191.919 56.7735 191.941 56.5807C191.962 56.0022 192.251 55.3594 192.808 54.6524C193.365 53.9239 194.212 53.3026 195.347 52.7884C196.483 52.2742 197.886 52.0171 199.557 52.0171C202.214 52.0171 204.185 52.6063 205.471 53.7847C206.756 54.9416 207.399 56.5164 207.399 58.5089V68.2466C207.399 68.4608 207.324 68.6537 207.174 68.8251C207.024 68.975 206.831 69.05 206.595 69.05H202.642C202.428 69.05 202.235 68.975 202.064 68.8251C201.914 68.6537 201.839 68.4608 201.839 68.2466V67.1218C201.368 67.7859 200.714 68.3323 199.879 68.7608C199.043 69.1679 198.047 69.3714 196.89 69.3714ZM198.497 65.5792C199.439 65.5792 200.2 65.2685 200.778 64.6472C201.378 64.0258 201.678 63.126 201.678 61.9476V61.562L199.011 62.0119C197.211 62.3547 196.311 62.9974 196.311 63.9401C196.311 64.4329 196.515 64.8293 196.922 65.1292C197.35 65.4292 197.875 65.5792 198.497 65.5792ZM215.94 69.3714C214.805 69.3714 213.765 69.1571 212.823 68.7286C211.901 68.2787 211.173 67.6681 210.637 66.8968C210.123 66.1255 209.866 65.2792 209.866 64.3579C209.866 62.901 210.466 61.7227 211.666 60.8228C212.887 59.9015 214.558 59.2695 216.679 58.9267L220.664 58.3161V57.9304C220.664 57.1377 220.504 56.5592 220.182 56.195C219.861 55.8308 219.315 55.6487 218.543 55.6487C218.115 55.6487 217.751 55.7237 217.451 55.8736C217.172 56.0236 216.851 56.2486 216.486 56.5485C216.208 56.7842 215.962 56.9556 215.747 57.0627C215.662 57.2127 215.554 57.2877 215.426 57.2877H211.698C211.484 57.2877 211.302 57.2234 211.152 57.0949C211.023 56.9449 210.97 56.7735 210.991 56.5807C211.012 56.0022 211.302 55.3594 211.859 54.6524C212.416 53.9239 213.262 53.3026 214.398 52.7884C215.533 52.2742 216.936 52.0171 218.608 52.0171C221.264 52.0171 223.235 52.6063 224.521 53.7847C225.806 54.9416 226.449 56.5164 226.449 58.5089V68.2466C226.449 68.4608 226.374 68.6537 226.224 68.8251C226.074 68.975 225.881 69.05 225.646 69.05H221.693C221.478 69.05 221.286 68.975 221.114 68.8251C220.964 68.6537 220.889 68.4608 220.889 68.2466V67.1218C220.418 67.7859 219.764 68.3323 218.929 68.7608C218.093 69.1679 217.097 69.3714 215.94 69.3714ZM217.547 65.5792C218.49 65.5792 219.25 65.2685 219.829 64.6472C220.429 64.0258 220.729 63.126 220.729 61.9476V61.562L218.061 62.0119C216.261 62.3547 215.362 62.9974 215.362 63.9401C215.362 64.4329 215.565 64.8293 215.972 65.1292C216.401 65.4292 216.926 65.5792 217.547 65.5792ZM230.748 69.05C230.534 69.05 230.341 68.975 230.17 68.8251C230.02 68.6537 229.945 68.4608 229.945 68.2466V53.1741C229.945 52.9384 230.02 52.7456 230.17 52.5956C230.32 52.4242 230.513 52.3385 230.748 52.3385H234.669C234.905 52.3385 235.098 52.4242 235.247 52.5956C235.419 52.7456 235.505 52.9384 235.505 53.1741V54.3953C236.104 53.7311 236.801 53.2276 237.594 52.8848C238.408 52.5206 239.308 52.3385 240.293 52.3385H241.739C241.975 52.3385 242.168 52.4135 242.318 52.5635C242.468 52.7134 242.543 52.9063 242.543 53.1419V56.6449C242.543 56.8592 242.468 57.052 242.318 57.2234C242.168 57.3734 241.975 57.4484 241.739 57.4484H238.493C237.636 57.4484 236.972 57.684 236.501 58.1554C236.051 58.6267 235.826 59.2909 235.826 60.1479V68.2466C235.826 68.4823 235.74 68.6751 235.569 68.8251C235.419 68.975 235.226 69.05 234.99 69.05H230.748ZM253.532 69.05C248.99 69.05 246.719 66.9182 246.719 62.6546V56.7092H244.18C243.965 56.7092 243.773 56.6342 243.601 56.4842C243.451 56.3128 243.376 56.12 243.376 55.9058V53.1419C243.376 52.9063 243.451 52.7134 243.601 52.5635C243.773 52.4135 243.965 52.3385 244.18 52.3385H246.719V47.0358C246.719 46.8001 246.794 46.6073 246.944 46.4573C247.115 46.3074 247.308 46.2324 247.522 46.2324H251.475C251.711 46.2324 251.903 46.3074 252.053 46.4573C252.203 46.6073 252.278 46.8001 252.278 47.0358V52.3385H256.296C256.531 52.3385 256.724 52.4135 256.874 52.5635C257.045 52.7134 257.131 52.9063 257.131 53.1419V55.9058C257.131 56.1414 257.045 56.3343 256.874 56.4842C256.724 56.6342 256.531 56.7092 256.296 56.7092H252.278V62.1726C252.278 62.9225 252.418 63.4902 252.696 63.8759C252.975 64.2615 253.425 64.4544 254.046 64.4544H256.585C256.82 64.4544 257.013 64.5401 257.163 64.7115C257.313 64.8614 257.388 65.0543 257.388 65.2899V68.2466C257.388 68.4608 257.313 68.6537 257.163 68.8251C257.013 68.975 256.82 69.05 256.585 69.05H253.532ZM266.986 69.3714C265.229 69.3714 263.761 69.125 262.583 68.6322C261.404 68.1395 260.526 67.5503 259.947 66.8647C259.39 66.1791 259.112 65.5577 259.112 65.0007C259.112 64.7864 259.187 64.615 259.337 64.4865C259.508 64.3365 259.69 64.2615 259.883 64.2615H263.772C263.9 64.2615 264.007 64.3044 264.093 64.3901C264.457 64.6258 264.661 64.765 264.704 64.8079C265.111 65.1078 265.486 65.3435 265.829 65.5149C266.193 65.6649 266.621 65.7399 267.114 65.7399C267.693 65.7399 268.164 65.6327 268.528 65.4185C268.914 65.1828 269.107 64.8614 269.107 64.4544C269.107 64.1115 269 63.833 268.785 63.6188C268.592 63.4045 268.207 63.201 267.628 63.0082C267.071 62.7939 266.214 62.5797 265.057 62.3654C261.351 61.6155 259.498 59.9015 259.498 57.2234C259.498 56.345 259.776 55.5094 260.333 54.7167C260.912 53.9025 261.747 53.2491 262.84 52.7563C263.954 52.2635 265.282 52.0171 266.825 52.0171C268.389 52.0171 269.739 52.2635 270.874 52.7563C272.031 53.2276 272.91 53.8061 273.509 54.4917C274.109 55.1559 274.409 55.7665 274.409 56.3236C274.409 56.5164 274.334 56.6878 274.184 56.8378C274.056 56.9877 273.895 57.0627 273.702 57.0627H270.167C269.974 57.0627 269.824 57.0199 269.717 56.9342C269.46 56.8056 269.203 56.6449 268.946 56.4521C268.56 56.195 268.218 56.0022 267.918 55.8736C267.639 55.7237 267.275 55.6487 266.825 55.6487C266.289 55.6487 265.871 55.7665 265.572 56.0022C265.272 56.2379 265.122 56.5378 265.122 56.902C265.122 57.2234 265.207 57.4912 265.379 57.7055C265.572 57.8983 265.946 58.0911 266.504 58.2839C267.082 58.4768 267.95 58.6803 269.107 58.8946C271.206 59.2588 272.727 59.9122 273.67 60.8549C274.634 61.7762 275.116 62.8582 275.116 64.1008C275.116 65.7077 274.399 66.9932 272.963 67.9573C271.549 68.9 269.557 69.3714 266.986 69.3714Z" fill="#3B323D"/>
</svg>
