<svg width="668" height="792" viewBox="0 0 668 792" fill="none" xmlns="http://www.w3.org/2000/svg">
<mask id="path-1-inside-1" fill="white">
<path d="M403.132 38.0914L411.033 34.141L415.774 33.3509H433.946L451.328 29.4005L444.217 25.45L402.342 27.0302L399.972 26.2401L396.812 28.6104L396.022 32.5608L399.182 36.5112L403.132 38.0914ZM321.754 60.2138L345.456 49.9427L351.777 48.3625L359.678 45.2022H366.788L369.159 43.622L368.369 42.8319L367.579 40.4617L366.788 39.6716L377.06 38.8815L381.8 37.3013L385.751 31.7707L360.468 36.5112L358.098 38.0914L356.517 40.4617L333.605 45.2022H329.654L325.704 47.5724L316.223 50.7328L314.643 56.2634L317.013 60.2138H321.754ZM480.561 28.6104V29.4005L481.351 30.9806L484.511 27.0302L515.325 17.5492H517.695V15.1789L512.954 13.5988L495.572 15.1789L490.832 16.7591L484.511 19.9194L479.771 23.8699L481.351 27.8203L480.561 28.6104ZM561.15 6.48799L561.94 4.90782L562.73 4.11774L563.52 3.32765H559.569L557.989 4.90782L557.199 6.48799L559.569 8.06816L561.15 6.48799ZM538.237 4.90782L544.558 7.27808L545.348 6.48799L546.138 5.69791L546.928 4.90782V4.90782L537.447 0.957397H535.077V2.53757L538.237 4.90782ZM275.139 96.5577L279.089 91.0271L292.52 77.5957L297.261 76.0155L299.631 74.4353H304.372V72.8552L295.681 71.275L283.83 78.3858L272.768 88.6569L265.658 98.1379L271.188 100.508L275.139 96.5577ZM664.651 113.94L666.231 109.199L667.021 104.459V99.7181L666.231 91.8172H664.651L652.009 88.6569L646.479 85.4965L645.689 80.756L644.899 78.3858V76.8056L645.689 76.0155L647.269 74.4353V72.8552H646.479L644.899 74.4353L641.738 75.2254L639.368 74.4353L637.788 72.8552L634.627 73.6452L627.517 69.6948L621.986 68.1146L620.406 66.5345L619.616 64.9543L618.826 64.1642V63.3741L614.875 60.2138L614.085 59.4237L608.555 35.7212L606.184 33.3509L603.024 32.5608L585.642 29.4005L544.558 35.7212L518.485 43.622L514.534 46.7823L512.954 47.5724L511.374 46.7823L508.214 44.4121L506.634 43.622L472.66 44.4121L456.068 45.2022L444.217 51.5229H440.266L433.946 56.2634L406.293 67.3246L399.972 72.8552L392.071 74.4353L388.911 75.2254L385.751 78.3858L383.38 82.3362L380.22 85.4965L373.899 88.6569L369.949 91.8172L363.628 98.928L360.468 107.619L355.727 127.371L352.567 134.482L349.407 136.852L341.506 138.432L338.345 140.802L335.975 143.963L301.211 174.776L294.101 177.936L286.99 178.727L283.039 180.307L275.929 186.627L271.978 188.998L264.867 189.788L257.757 187.418L253.806 181.887L256.177 173.196L254.596 170.826L253.016 172.406L242.745 170.826L241.165 173.196L239.585 178.727L238.795 185.837V191.368L237.215 200.849L230.104 219.811L228.524 228.502L227.733 232.452L224.573 246.674L217.462 301.19L213.512 309.091V311.461L211.932 319.362L201.661 350.175L184.279 381.779L162.946 412.592L138.454 443.405L132.923 447.356L125.812 448.146L117.912 446.566L117.122 448.146L116.331 450.516L117.912 455.256L121.072 466.318L121.862 470.268L121.072 471.058L120.282 472.638L119.492 474.218L118.702 476.589L119.492 478.169L120.282 478.959L121.072 479.749L125.022 486.07L126.603 488.44L125.022 490.81L123.442 491.6H121.862H121.072L116.331 489.23L110.801 487.65H107.641L106.06 489.23L94.9992 492.39L90.2587 495.551L91.8388 503.452H93.419H94.9992L95.7892 502.662L98.9496 501.871H102.9L107.641 500.291L110.801 497.921L115.541 501.081L119.492 505.032L122.652 510.562L123.442 520.043L125.812 523.994L137.664 527.944L141.614 531.105L143.194 532.685L137.664 533.475L134.503 535.055L132.133 537.425L131.343 539.796V542.956L132.133 546.116L132.923 548.487L134.503 550.067L136.084 551.647L137.664 552.437H145.565L147.935 554.807L148.725 560.338L144.775 557.177L140.034 555.597L124.232 554.807H120.282L110.801 559.548L124.232 572.189L128.183 574.559L130.553 575.349L136.084 574.559H138.454L145.565 577.72L153.465 579.3L158.206 582.46L162.156 587.201L163.737 593.521L161.366 599.842L155.836 601.422H150.305H147.935L144.775 599.842L136.084 601.422L132.133 599.842L129.763 596.682L126.603 587.201L124.232 583.25L117.122 576.93L108.431 573.769L91.8388 572.189V570.609L92.6289 569.819L95.7892 568.239L97.3694 567.449L95.7892 563.498L93.419 560.338L90.2587 557.968L87.8884 556.387L83.938 555.597L37.3229 560.338L19.151 571.399H17.5708L18.3609 576.139L19.9411 579.3L25.4716 584.04L27.8419 587.201L30.2122 591.941L32.5824 595.892L35.7428 597.472L45.2238 599.842H49.1742L56.285 597.472H58.6552L65.766 603.792L76.0371 609.323L80.7776 614.064L82.3578 614.854H83.938L86.3082 613.273L92.6289 612.483L94.9992 610.903L96.5793 607.743L102.11 598.262L104.48 596.682L111.591 597.472L114.751 599.052L124.232 606.953L127.393 609.323L131.343 610.113H147.145L151.885 609.323L153.465 606.953L155.046 608.533L155.836 610.903V614.064L156.626 617.224L158.206 620.384L158.996 621.174H163.737L165.317 621.964L169.267 624.335L170.847 625.125L172.428 625.915L179.538 626.705H181.118L184.279 625.125V624.335L185.069 620.384V619.594L184.279 617.224L180.328 612.483L179.538 611.693L178.748 609.323V606.163L179.538 603.792L180.328 602.212L177.958 599.842L187.439 594.311L192.97 591.941L196.13 590.361L200.871 589.571H201.661L204.031 590.361L205.611 592.731V595.892V596.682L204.031 599.842V601.422V603.002L204.821 603.792L207.191 605.373H207.981H208.771H210.352L214.302 604.583L219.833 606.163H220.623H222.993L225.363 605.373L226.943 603.792L240.375 587.201L245.905 584.04H248.276L249.856 584.83L251.436 585.62L252.226 586.411L254.596 587.991L256.177 590.361L256.967 594.311L256.177 596.682L254.596 599.842L253.806 603.002V604.583L254.596 606.953L255.386 609.323L247.486 606.163H245.905L245.115 609.323L249.066 610.903L260.917 611.693L262.497 612.483L264.077 613.273L267.238 614.854L270.398 616.434L274.349 615.644L275.929 613.273L278.299 610.903L280.669 606.953L282.249 605.373L283.039 603.792L284.62 601.422L285.41 599.842L286.2 598.262L286.99 596.682V595.892L287.78 594.311L290.15 595.892V596.682L295.681 599.842L297.261 602.212L299.631 606.163L298.841 610.903L297.261 614.854V617.224L296.471 621.174L297.261 623.545L302.792 629.865L303.582 632.236L305.162 638.556L305.952 640.136L309.112 641.717L315.433 640.926H316.223H318.593L321.754 644.877V654.358L324.914 655.148L331.235 653.568L351.777 654.358L355.727 652.778L362.838 648.037L363.628 647.247L365.998 645.667L369.949 646.457L371.529 648.037L373.899 649.617L376.27 652.778L377.06 653.568L378.64 659.098L379.43 665.419L383.38 668.579L392.861 671.74L394.441 672.53L395.232 673.32L396.812 674.9L397.602 675.69L398.392 676.48H401.552L405.503 675.69L408.663 674.9H412.613L415.774 676.48L419.724 681.221L422.094 682.801L424.465 682.011L426.835 681.221H427.625H429.995L431.576 684.381L432.366 685.961L430.785 687.542L429.205 688.332L428.415 691.492L432.366 695.442L431.576 696.232H430.785H429.995L429.205 697.023H427.625H426.045V697.813V699.393V700.183L426.835 700.973L425.255 704.923L424.465 706.504L422.885 708.084L421.304 706.504L419.724 707.294L418.934 708.874V709.664V711.244V713.614L421.304 716.775L418.144 723.095L411.033 734.157L414.984 733.366H416.564L418.144 734.157L417.354 734.947L415.774 737.317L413.404 743.638L411.033 746.798L410.243 747.588L408.663 748.378L407.083 749.168H406.293L396.022 760.229L393.651 762.6V766.55V768.13L394.441 768.92L396.812 772.081L400.762 774.451H401.552L404.713 776.031L407.083 776.821V779.191V779.981L406.293 782.352L404.713 787.882L406.293 788.672L407.873 789.463H409.453H410.243H411.033H411.823L414.194 785.512V784.722L415.774 783.142L416.564 783.932H417.354L420.514 787.882L422.094 789.463L437.106 788.672L441.057 790.253L453.698 791.043H455.278L457.648 790.253L458.438 787.092L457.648 785.512L456.068 783.932L454.488 781.562L453.698 778.401L456.068 779.191L458.438 776.821L459.228 773.661L458.438 771.291V768.92L460.019 766.55L462.389 764.97H466.339L467.919 762.6L468.709 759.439V757.069L467.919 751.538V749.958L468.709 748.378L469.5 747.588L463.969 746.008L460.019 742.847L458.438 741.267L457.648 738.897V734.947L458.438 731.786L459.228 729.416L460.019 727.836L453.698 728.626L448.957 727.046H446.587L444.217 727.836L439.476 730.206L437.106 730.996V723.885L434.736 715.985L433.946 709.664L438.686 707.294L441.057 708.874L443.427 711.244L445.797 713.614L448.957 712.824L451.328 710.454L454.488 703.343L456.858 700.973L472.66 688.332L482.141 682.801L484.511 679.641L480.561 676.48L484.511 673.32L486.091 672.53L482.141 670.95L473.45 676.48L469.5 674.11L467.919 668.579L468.709 662.259L470.29 656.728L471.87 653.568L475.82 648.827L483.721 633.026L485.301 631.445L489.252 628.285L490.832 625.915L491.622 622.754L492.412 616.434L493.202 614.064L491.622 610.903V606.163L493.202 600.632L493.992 595.101L493.202 590.361L491.622 580.88L484.511 572.979L472.66 557.177L471.87 554.017L472.66 550.067L474.24 543.746L463.969 538.215L460.019 533.475L462.389 525.574L460.019 523.994L456.068 520.834L454.488 520.043H449.747L448.167 519.253V516.093L452.118 512.143V506.612L449.747 501.081L445.797 498.711L446.587 496.341L449.747 494.761L456.858 493.181L460.019 491.6L463.179 489.23L465.549 487.65L472.66 486.07L478.191 487.65L482.141 488.44L485.301 489.23L482.931 485.28L476.61 478.959L474.24 477.379L479.771 474.218L485.301 476.589L490.832 481.329L496.362 483.699L501.893 482.909H503.473L505.053 484.49L506.634 487.65L507.424 488.44L513.744 489.23L516.905 490.81L517.695 494.761L524.015 493.181L524.806 490.02L523.225 483.699L534.287 486.86H537.447L540.607 485.28L549.298 478.959L566.68 473.428L582.482 472.638L587.222 470.268L591.173 465.528L595.123 458.417L596.703 456.837H598.283L599.074 456.046V452.886L598.283 451.306L597.493 449.726L593.543 444.985L582.482 438.665L578.531 437.875L575.371 435.504L574.581 431.554L576.161 428.394L577.741 427.603H579.321L581.692 426.813L583.272 425.233L584.852 421.283L585.642 419.703L588.802 416.542L591.173 414.962L602.234 413.382L604.604 411.802L608.555 403.901L611.715 400.741L618.826 397.58L621.986 394.42L625.936 388.099L627.517 385.729L635.417 380.988L636.208 379.408L634.627 377.038L633.837 369.927V364.397L635.417 360.446L638.578 352.545L640.158 342.274L637.788 335.163L627.517 317.782L626.727 318.572L625.936 320.152L624.356 321.732L620.406 323.312H615.665L610.135 322.522L601.444 319.362L587.222 316.992L582.482 314.621L579.321 310.671L578.531 306.72V301.98L577.741 297.239L575.371 292.499H578.531L588.012 287.758L582.482 283.018L580.902 281.438V279.067L581.692 276.697V274.327L580.112 271.167L586.432 267.216L591.963 265.636H608.555L618.036 268.796L626.727 267.216L629.097 268.006L635.417 269.586L638.578 263.266L640.158 252.995L641.738 222.181L643.318 212.7L646.479 204.009L660.7 181.887L664.651 172.406L666.231 162.925V152.654L664.651 132.112L663.861 129.741L662.28 127.371L661.49 125.791V122.631L662.28 120.26L664.651 113.94ZM437.106 303.56L435.526 309.881L432.366 315.411L425.255 325.682L421.304 329.633L415.774 333.583L410.243 336.744L399.182 340.694L393.651 344.644L385.751 354.126L381.01 367.557L379.43 369.927L364.418 373.878L357.307 373.088L349.407 369.137L333.605 357.286L330.445 356.496L323.334 357.286H317.803L314.643 356.496L305.952 350.175L302.792 348.595L294.891 347.805L291.73 347.015L281.459 340.694L282.249 339.114L283.039 338.324V335.954L285.41 336.744L286.2 337.534L287.78 338.324V335.954L290.15 337.534L291.73 334.373L293.311 329.633L295.681 327.263L297.261 326.473L298.841 324.892L300.421 322.522L302.001 319.362L298.841 317.782V316.992L298.051 314.621L296.471 313.041L299.631 311.461H301.211L300.421 308.301L299.631 307.51L302.792 303.56L301.211 296.449L295.681 283.808L293.311 275.907V268.796L295.681 264.056L302.001 263.266L306.742 264.846L308.322 265.636L311.483 268.796L313.853 268.006L316.223 267.216L326.494 260.105L329.654 256.945L332.025 249.834L334.395 247.464L339.926 244.304L339.136 241.143L338.345 237.983L337.555 234.823L336.765 233.242L328.074 229.292H324.914L322.544 230.082L320.964 230.872L319.383 232.452L317.013 234.033L314.643 232.452L312.273 230.082L310.692 229.292L308.322 225.342L307.532 207.17L306.742 200.849L298.051 183.467L294.101 180.307L301.211 177.146L308.322 172.406L335.975 147.913L350.197 138.432L351.777 144.753L352.567 147.123L354.147 150.284L355.727 151.074L356.517 155.024V158.974L355.727 162.135L357.307 165.295L358.098 170.036V174.776L354.937 178.727L357.307 183.467L355.727 185.837L352.567 187.418L350.987 190.578H350.197L349.407 191.368V194.528L350.197 196.108L350.987 196.899L352.567 197.689L353.357 199.269L357.307 202.429L362.838 204.009L373.899 204.799L376.27 205.589L380.22 207.96L382.59 208.75L385.751 207.96L387.331 207.17L391.281 204.799L394.441 204.009H396.812L409.453 207.96L411.033 209.54H404.713L399.182 213.49L395.232 219.021L392.071 226.132L390.491 233.242L388.911 245.094V256.155L392.071 260.895L394.441 262.476L398.392 270.376L399.972 272.747L403.132 273.537L426.045 271.957L429.205 272.747L431.576 274.327L433.156 277.487L434.736 282.228L437.106 292.499L437.896 298.029L437.106 303.56ZM403.132 277.487L398.392 272.747L395.232 275.117L384.96 278.277L381.8 280.648L373.899 288.548H372.319L369.159 287.758L367.579 288.548L363.628 299.61L362.048 301.19L355.727 303.56L347.826 310.671L335.185 316.201L328.074 323.312L317.013 328.843L312.273 333.583L309.112 335.163L309.902 340.694L310.692 344.644L311.483 347.805L315.433 349.385L323.334 348.595L326.494 349.385L338.345 354.126L343.876 357.286L354.147 365.187L358.888 366.767L370.739 365.977L377.06 363.607L381.01 358.866L381.8 351.755L380.22 343.064L384.96 340.694L387.331 339.904H390.491L392.861 338.324L396.812 332.793L399.182 331.213L403.923 330.423L411.823 326.473L416.564 325.682L420.514 324.892L425.255 320.152L429.205 314.621L432.366 309.091L434.736 301.98V296.449L431.576 283.808L403.132 277.487ZM64.9759 535.055L72.8768 534.265L73.6669 533.475L78.4074 528.734H80.7776L82.3578 530.315L83.1479 531.895L83.938 532.685L91.0487 535.845L94.2091 538.215L94.9992 541.376L96.5793 545.326L100.53 547.696L106.85 550.067H110.011L123.442 547.696L126.603 546.906L129.763 545.326L131.343 542.166L130.553 537.425L127.393 535.055L120.282 533.475L118.702 531.895L117.912 530.315L117.122 528.734L110.011 520.834L106.85 518.463L102.9 517.673L86.3082 516.883L83.938 515.303H80.7776H79.9875L65.766 517.673L59.4453 521.624L58.6552 530.315L61.0255 533.475L64.9759 535.055ZM143.984 618.014L143.194 618.804L140.034 623.545L134.503 622.754L133.713 621.964L132.133 620.384L128.183 619.594L126.603 618.804L125.022 617.224L123.442 613.273L120.282 612.483L117.912 610.903L113.961 609.323H110.011L108.431 611.693L107.641 617.224L105.27 620.384L88.6785 626.705L84.7281 627.495L78.4074 625.915H71.2966L67.3462 624.335L61.8156 618.804L45.2238 614.064L34.1626 606.953H31.7923L28.632 609.323L0.979004 618.804L1.76909 625.915L2.55918 629.865L1.76909 636.186V642.507L3.34926 647.247L4.13935 649.617L8.08977 654.358L11.2501 655.938L12.8303 656.728H16.7807H18.3609L25.4716 655.938H27.0518V655.148V653.568L26.2617 650.407V649.617V647.247L27.8419 645.667L30.2122 644.877H33.3725L40.4833 643.297H41.2734H45.2238L49.1742 644.087L70.5065 651.198L73.6669 653.568L74.4569 657.518V660.679V663.839L76.8272 666.999L78.4074 667.789H98.9496L101.32 666.999L102.9 666.209L103.69 665.419L110.801 659.889L132.133 648.827L140.824 641.717L147.935 632.236L148.725 630.655V629.865L150.305 623.545V622.754L146.355 620.384L143.984 618.014ZM245.115 163.715L250.646 162.135L254.596 154.234L262.497 147.913L267.238 140.802L269.608 136.062L270.398 132.112H267.238V130.531L270.398 127.371V122.631L268.818 117.1L266.448 113.15L267.238 111.569V109.989L266.448 108.409L265.658 106.829H260.127L256.177 113.94L252.226 122.631L244.325 129.741L240.375 136.852L237.215 145.543L236.424 153.444L239.585 160.555L245.115 163.715Z"/>
</mask>
<path d="M403.132 38.0914L411.033 34.141L415.774 33.3509H433.946L451.328 29.4005L444.217 25.45L402.342 27.0302L399.972 26.2401L396.812 28.6104L396.022 32.5608L399.182 36.5112L403.132 38.0914ZM321.754 60.2138L345.456 49.9427L351.777 48.3625L359.678 45.2022H366.788L369.159 43.622L368.369 42.8319L367.579 40.4617L366.788 39.6716L377.06 38.8815L381.8 37.3013L385.751 31.7707L360.468 36.5112L358.098 38.0914L356.517 40.4617L333.605 45.2022H329.654L325.704 47.5724L316.223 50.7328L314.643 56.2634L317.013 60.2138H321.754ZM480.561 28.6104V29.4005L481.351 30.9806L484.511 27.0302L515.325 17.5492H517.695V15.1789L512.954 13.5988L495.572 15.1789L490.832 16.7591L484.511 19.9194L479.771 23.8699L481.351 27.8203L480.561 28.6104ZM561.15 6.48799L561.94 4.90782L562.73 4.11774L563.52 3.32765H559.569L557.989 4.90782L557.199 6.48799L559.569 8.06816L561.15 6.48799ZM538.237 4.90782L544.558 7.27808L545.348 6.48799L546.138 5.69791L546.928 4.90782V4.90782L537.447 0.957397H535.077V2.53757L538.237 4.90782ZM275.139 96.5577L279.089 91.0271L292.52 77.5957L297.261 76.0155L299.631 74.4353H304.372V72.8552L295.681 71.275L283.83 78.3858L272.768 88.6569L265.658 98.1379L271.188 100.508L275.139 96.5577ZM664.651 113.94L666.231 109.199L667.021 104.459V99.7181L666.231 91.8172H664.651L652.009 88.6569L646.479 85.4965L645.689 80.756L644.899 78.3858V76.8056L645.689 76.0155L647.269 74.4353V72.8552H646.479L644.899 74.4353L641.738 75.2254L639.368 74.4353L637.788 72.8552L634.627 73.6452L627.517 69.6948L621.986 68.1146L620.406 66.5345L619.616 64.9543L618.826 64.1642V63.3741L614.875 60.2138L614.085 59.4237L608.555 35.7212L606.184 33.3509L603.024 32.5608L585.642 29.4005L544.558 35.7212L518.485 43.622L514.534 46.7823L512.954 47.5724L511.374 46.7823L508.214 44.4121L506.634 43.622L472.66 44.4121L456.068 45.2022L444.217 51.5229H440.266L433.946 56.2634L406.293 67.3246L399.972 72.8552L392.071 74.4353L388.911 75.2254L385.751 78.3858L383.38 82.3362L380.22 85.4965L373.899 88.6569L369.949 91.8172L363.628 98.928L360.468 107.619L355.727 127.371L352.567 134.482L349.407 136.852L341.506 138.432L338.345 140.802L335.975 143.963L301.211 174.776L294.101 177.936L286.99 178.727L283.039 180.307L275.929 186.627L271.978 188.998L264.867 189.788L257.757 187.418L253.806 181.887L256.177 173.196L254.596 170.826L253.016 172.406L242.745 170.826L241.165 173.196L239.585 178.727L238.795 185.837V191.368L237.215 200.849L230.104 219.811L228.524 228.502L227.733 232.452L224.573 246.674L217.462 301.19L213.512 309.091V311.461L211.932 319.362L201.661 350.175L184.279 381.779L162.946 412.592L138.454 443.405L132.923 447.356L125.812 448.146L117.912 446.566L117.122 448.146L116.331 450.516L117.912 455.256L121.072 466.318L121.862 470.268L121.072 471.058L120.282 472.638L119.492 474.218L118.702 476.589L119.492 478.169L120.282 478.959L121.072 479.749L125.022 486.07L126.603 488.44L125.022 490.81L123.442 491.6H121.862H121.072L116.331 489.23L110.801 487.65H107.641L106.06 489.23L94.9992 492.39L90.2587 495.551L91.8388 503.452H93.419H94.9992L95.7892 502.662L98.9496 501.871H102.9L107.641 500.291L110.801 497.921L115.541 501.081L119.492 505.032L122.652 510.562L123.442 520.043L125.812 523.994L137.664 527.944L141.614 531.105L143.194 532.685L137.664 533.475L134.503 535.055L132.133 537.425L131.343 539.796V542.956L132.133 546.116L132.923 548.487L134.503 550.067L136.084 551.647L137.664 552.437H145.565L147.935 554.807L148.725 560.338L144.775 557.177L140.034 555.597L124.232 554.807H120.282L110.801 559.548L124.232 572.189L128.183 574.559L130.553 575.349L136.084 574.559H138.454L145.565 577.72L153.465 579.3L158.206 582.46L162.156 587.201L163.737 593.521L161.366 599.842L155.836 601.422H150.305H147.935L144.775 599.842L136.084 601.422L132.133 599.842L129.763 596.682L126.603 587.201L124.232 583.25L117.122 576.93L108.431 573.769L91.8388 572.189V570.609L92.6289 569.819L95.7892 568.239L97.3694 567.449L95.7892 563.498L93.419 560.338L90.2587 557.968L87.8884 556.387L83.938 555.597L37.3229 560.338L19.151 571.399H17.5708L18.3609 576.139L19.9411 579.3L25.4716 584.04L27.8419 587.201L30.2122 591.941L32.5824 595.892L35.7428 597.472L45.2238 599.842H49.1742L56.285 597.472H58.6552L65.766 603.792L76.0371 609.323L80.7776 614.064L82.3578 614.854H83.938L86.3082 613.273L92.6289 612.483L94.9992 610.903L96.5793 607.743L102.11 598.262L104.48 596.682L111.591 597.472L114.751 599.052L124.232 606.953L127.393 609.323L131.343 610.113H147.145L151.885 609.323L153.465 606.953L155.046 608.533L155.836 610.903V614.064L156.626 617.224L158.206 620.384L158.996 621.174H163.737L165.317 621.964L169.267 624.335L170.847 625.125L172.428 625.915L179.538 626.705H181.118L184.279 625.125V624.335L185.069 620.384V619.594L184.279 617.224L180.328 612.483L179.538 611.693L178.748 609.323V606.163L179.538 603.792L180.328 602.212L177.958 599.842L187.439 594.311L192.97 591.941L196.13 590.361L200.871 589.571H201.661L204.031 590.361L205.611 592.731V595.892V596.682L204.031 599.842V601.422V603.002L204.821 603.792L207.191 605.373H207.981H208.771H210.352L214.302 604.583L219.833 606.163H220.623H222.993L225.363 605.373L226.943 603.792L240.375 587.201L245.905 584.04H248.276L249.856 584.83L251.436 585.62L252.226 586.411L254.596 587.991L256.177 590.361L256.967 594.311L256.177 596.682L254.596 599.842L253.806 603.002V604.583L254.596 606.953L255.386 609.323L247.486 606.163H245.905L245.115 609.323L249.066 610.903L260.917 611.693L262.497 612.483L264.077 613.273L267.238 614.854L270.398 616.434L274.349 615.644L275.929 613.273L278.299 610.903L280.669 606.953L282.249 605.373L283.039 603.792L284.62 601.422L285.41 599.842L286.2 598.262L286.99 596.682V595.892L287.78 594.311L290.15 595.892V596.682L295.681 599.842L297.261 602.212L299.631 606.163L298.841 610.903L297.261 614.854V617.224L296.471 621.174L297.261 623.545L302.792 629.865L303.582 632.236L305.162 638.556L305.952 640.136L309.112 641.717L315.433 640.926H316.223H318.593L321.754 644.877V654.358L324.914 655.148L331.235 653.568L351.777 654.358L355.727 652.778L362.838 648.037L363.628 647.247L365.998 645.667L369.949 646.457L371.529 648.037L373.899 649.617L376.27 652.778L377.06 653.568L378.64 659.098L379.43 665.419L383.38 668.579L392.861 671.74L394.441 672.53L395.232 673.32L396.812 674.9L397.602 675.69L398.392 676.48H401.552L405.503 675.69L408.663 674.9H412.613L415.774 676.48L419.724 681.221L422.094 682.801L424.465 682.011L426.835 681.221H427.625H429.995L431.576 684.381L432.366 685.961L430.785 687.542L429.205 688.332L428.415 691.492L432.366 695.442L431.576 696.232H430.785H429.995L429.205 697.023H427.625H426.045V697.813V699.393V700.183L426.835 700.973L425.255 704.923L424.465 706.504L422.885 708.084L421.304 706.504L419.724 707.294L418.934 708.874V709.664V711.244V713.614L421.304 716.775L418.144 723.095L411.033 734.157L414.984 733.366H416.564L418.144 734.157L417.354 734.947L415.774 737.317L413.404 743.638L411.033 746.798L410.243 747.588L408.663 748.378L407.083 749.168H406.293L396.022 760.229L393.651 762.6V766.55V768.13L394.441 768.92L396.812 772.081L400.762 774.451H401.552L404.713 776.031L407.083 776.821V779.191V779.981L406.293 782.352L404.713 787.882L406.293 788.672L407.873 789.463H409.453H410.243H411.033H411.823L414.194 785.512V784.722L415.774 783.142L416.564 783.932H417.354L420.514 787.882L422.094 789.463L437.106 788.672L441.057 790.253L453.698 791.043H455.278L457.648 790.253L458.438 787.092L457.648 785.512L456.068 783.932L454.488 781.562L453.698 778.401L456.068 779.191L458.438 776.821L459.228 773.661L458.438 771.291V768.92L460.019 766.55L462.389 764.97H466.339L467.919 762.6L468.709 759.439V757.069L467.919 751.538V749.958L468.709 748.378L469.5 747.588L463.969 746.008L460.019 742.847L458.438 741.267L457.648 738.897V734.947L458.438 731.786L459.228 729.416L460.019 727.836L453.698 728.626L448.957 727.046H446.587L444.217 727.836L439.476 730.206L437.106 730.996V723.885L434.736 715.985L433.946 709.664L438.686 707.294L441.057 708.874L443.427 711.244L445.797 713.614L448.957 712.824L451.328 710.454L454.488 703.343L456.858 700.973L472.66 688.332L482.141 682.801L484.511 679.641L480.561 676.48L484.511 673.32L486.091 672.53L482.141 670.95L473.45 676.48L469.5 674.11L467.919 668.579L468.709 662.259L470.29 656.728L471.87 653.568L475.82 648.827L483.721 633.026L485.301 631.445L489.252 628.285L490.832 625.915L491.622 622.754L492.412 616.434L493.202 614.064L491.622 610.903V606.163L493.202 600.632L493.992 595.101L493.202 590.361L491.622 580.88L484.511 572.979L472.66 557.177L471.87 554.017L472.66 550.067L474.24 543.746L463.969 538.215L460.019 533.475L462.389 525.574L460.019 523.994L456.068 520.834L454.488 520.043H449.747L448.167 519.253V516.093L452.118 512.143V506.612L449.747 501.081L445.797 498.711L446.587 496.341L449.747 494.761L456.858 493.181L460.019 491.6L463.179 489.23L465.549 487.65L472.66 486.07L478.191 487.65L482.141 488.44L485.301 489.23L482.931 485.28L476.61 478.959L474.24 477.379L479.771 474.218L485.301 476.589L490.832 481.329L496.362 483.699L501.893 482.909H503.473L505.053 484.49L506.634 487.65L507.424 488.44L513.744 489.23L516.905 490.81L517.695 494.761L524.015 493.181L524.806 490.02L523.225 483.699L534.287 486.86H537.447L540.607 485.28L549.298 478.959L566.68 473.428L582.482 472.638L587.222 470.268L591.173 465.528L595.123 458.417L596.703 456.837H598.283L599.074 456.046V452.886L598.283 451.306L597.493 449.726L593.543 444.985L582.482 438.665L578.531 437.875L575.371 435.504L574.581 431.554L576.161 428.394L577.741 427.603H579.321L581.692 426.813L583.272 425.233L584.852 421.283L585.642 419.703L588.802 416.542L591.173 414.962L602.234 413.382L604.604 411.802L608.555 403.901L611.715 400.741L618.826 397.58L621.986 394.42L625.936 388.099L627.517 385.729L635.417 380.988L636.208 379.408L634.627 377.038L633.837 369.927V364.397L635.417 360.446L638.578 352.545L640.158 342.274L637.788 335.163L627.517 317.782L626.727 318.572L625.936 320.152L624.356 321.732L620.406 323.312H615.665L610.135 322.522L601.444 319.362L587.222 316.992L582.482 314.621L579.321 310.671L578.531 306.72V301.98L577.741 297.239L575.371 292.499H578.531L588.012 287.758L582.482 283.018L580.902 281.438V279.067L581.692 276.697V274.327L580.112 271.167L586.432 267.216L591.963 265.636H608.555L618.036 268.796L626.727 267.216L629.097 268.006L635.417 269.586L638.578 263.266L640.158 252.995L641.738 222.181L643.318 212.7L646.479 204.009L660.7 181.887L664.651 172.406L666.231 162.925V152.654L664.651 132.112L663.861 129.741L662.28 127.371L661.49 125.791V122.631L662.28 120.26L664.651 113.94ZM437.106 303.56L435.526 309.881L432.366 315.411L425.255 325.682L421.304 329.633L415.774 333.583L410.243 336.744L399.182 340.694L393.651 344.644L385.751 354.126L381.01 367.557L379.43 369.927L364.418 373.878L357.307 373.088L349.407 369.137L333.605 357.286L330.445 356.496L323.334 357.286H317.803L314.643 356.496L305.952 350.175L302.792 348.595L294.891 347.805L291.73 347.015L281.459 340.694L282.249 339.114L283.039 338.324V335.954L285.41 336.744L286.2 337.534L287.78 338.324V335.954L290.15 337.534L291.73 334.373L293.311 329.633L295.681 327.263L297.261 326.473L298.841 324.892L300.421 322.522L302.001 319.362L298.841 317.782V316.992L298.051 314.621L296.471 313.041L299.631 311.461H301.211L300.421 308.301L299.631 307.51L302.792 303.56L301.211 296.449L295.681 283.808L293.311 275.907V268.796L295.681 264.056L302.001 263.266L306.742 264.846L308.322 265.636L311.483 268.796L313.853 268.006L316.223 267.216L326.494 260.105L329.654 256.945L332.025 249.834L334.395 247.464L339.926 244.304L339.136 241.143L338.345 237.983L337.555 234.823L336.765 233.242L328.074 229.292H324.914L322.544 230.082L320.964 230.872L319.383 232.452L317.013 234.033L314.643 232.452L312.273 230.082L310.692 229.292L308.322 225.342L307.532 207.17L306.742 200.849L298.051 183.467L294.101 180.307L301.211 177.146L308.322 172.406L335.975 147.913L350.197 138.432L351.777 144.753L352.567 147.123L354.147 150.284L355.727 151.074L356.517 155.024V158.974L355.727 162.135L357.307 165.295L358.098 170.036V174.776L354.937 178.727L357.307 183.467L355.727 185.837L352.567 187.418L350.987 190.578H350.197L349.407 191.368V194.528L350.197 196.108L350.987 196.899L352.567 197.689L353.357 199.269L357.307 202.429L362.838 204.009L373.899 204.799L376.27 205.589L380.22 207.96L382.59 208.75L385.751 207.96L387.331 207.17L391.281 204.799L394.441 204.009H396.812L409.453 207.96L411.033 209.54H404.713L399.182 213.49L395.232 219.021L392.071 226.132L390.491 233.242L388.911 245.094V256.155L392.071 260.895L394.441 262.476L398.392 270.376L399.972 272.747L403.132 273.537L426.045 271.957L429.205 272.747L431.576 274.327L433.156 277.487L434.736 282.228L437.106 292.499L437.896 298.029L437.106 303.56ZM403.132 277.487L398.392 272.747L395.232 275.117L384.96 278.277L381.8 280.648L373.899 288.548H372.319L369.159 287.758L367.579 288.548L363.628 299.61L362.048 301.19L355.727 303.56L347.826 310.671L335.185 316.201L328.074 323.312L317.013 328.843L312.273 333.583L309.112 335.163L309.902 340.694L310.692 344.644L311.483 347.805L315.433 349.385L323.334 348.595L326.494 349.385L338.345 354.126L343.876 357.286L354.147 365.187L358.888 366.767L370.739 365.977L377.06 363.607L381.01 358.866L381.8 351.755L380.22 343.064L384.96 340.694L387.331 339.904H390.491L392.861 338.324L396.812 332.793L399.182 331.213L403.923 330.423L411.823 326.473L416.564 325.682L420.514 324.892L425.255 320.152L429.205 314.621L432.366 309.091L434.736 301.98V296.449L431.576 283.808L403.132 277.487ZM64.9759 535.055L72.8768 534.265L73.6669 533.475L78.4074 528.734H80.7776L82.3578 530.315L83.1479 531.895L83.938 532.685L91.0487 535.845L94.2091 538.215L94.9992 541.376L96.5793 545.326L100.53 547.696L106.85 550.067H110.011L123.442 547.696L126.603 546.906L129.763 545.326L131.343 542.166L130.553 537.425L127.393 535.055L120.282 533.475L118.702 531.895L117.912 530.315L117.122 528.734L110.011 520.834L106.85 518.463L102.9 517.673L86.3082 516.883L83.938 515.303H80.7776H79.9875L65.766 517.673L59.4453 521.624L58.6552 530.315L61.0255 533.475L64.9759 535.055ZM143.984 618.014L143.194 618.804L140.034 623.545L134.503 622.754L133.713 621.964L132.133 620.384L128.183 619.594L126.603 618.804L125.022 617.224L123.442 613.273L120.282 612.483L117.912 610.903L113.961 609.323H110.011L108.431 611.693L107.641 617.224L105.27 620.384L88.6785 626.705L84.7281 627.495L78.4074 625.915H71.2966L67.3462 624.335L61.8156 618.804L45.2238 614.064L34.1626 606.953H31.7923L28.632 609.323L0.979004 618.804L1.76909 625.915L2.55918 629.865L1.76909 636.186V642.507L3.34926 647.247L4.13935 649.617L8.08977 654.358L11.2501 655.938L12.8303 656.728H16.7807H18.3609L25.4716 655.938H27.0518V655.148V653.568L26.2617 650.407V649.617V647.247L27.8419 645.667L30.2122 644.877H33.3725L40.4833 643.297H41.2734H45.2238L49.1742 644.087L70.5065 651.198L73.6669 653.568L74.4569 657.518V660.679V663.839L76.8272 666.999L78.4074 667.789H98.9496L101.32 666.999L102.9 666.209L103.69 665.419L110.801 659.889L132.133 648.827L140.824 641.717L147.935 632.236L148.725 630.655V629.865L150.305 623.545V622.754L146.355 620.384L143.984 618.014ZM245.115 163.715L250.646 162.135L254.596 154.234L262.497 147.913L267.238 140.802L269.608 136.062L270.398 132.112H267.238V130.531L270.398 127.371V122.631L268.818 117.1L266.448 113.15L267.238 111.569V109.989L266.448 108.409L265.658 106.829H260.127L256.177 113.94L252.226 122.631L244.325 129.741L240.375 136.852L237.215 145.543L236.424 153.444L239.585 160.555L245.115 163.715Z" stroke="#3B323D" stroke-opacity="0.2" stroke-width="4" mask="url(#path-1-inside-1)"/>
</svg>
