<svg width="72" height="84" viewBox="0 0 72 84" fill="none" xmlns="http://www.w3.org/2000/svg">
<path d="M56.8125 78.8238C37.3125 78.8238 32.8125 72.5738 32.1875 41.8238C31.7174 18.6934 11.5301 11.9399 1.32965 11.3531C13.4375 36.9488 1.97517 45.2674 5.1875 60.1988C11.9375 91.5738 45.4375 84.4488 56.8125 78.8238Z" fill="#EF8202"/>
<path d="M42.6875 28.0738C49.3124 15.0738 63.8958 11.6988 71.3125 11.5738C61.3125 20.2738 65.2291 42.2821 68.4375 52.1988C71.6458 62.1154 66.2875 78.1988 50.6875 75.6988C31.1875 72.5738 34.8144 43.5228 42.6875 28.0738Z" fill="#EF8202"/>
<path fill-rule="evenodd" clip-rule="evenodd" d="M22.9988 15.0752C25.3535 10.5986 28.0177 6.58772 30.3436 3.41106C33.4095 -0.776339 39.3277 -0.798874 42.4175 3.37096C44.6688 6.40927 47.2312 10.2173 49.5212 14.4738C45.4711 17.2567 41.7646 21.0752 39.1236 26.2575C37.7771 28.8999 36.5458 31.9082 35.5135 35.1185C33.7698 25.9296 28.871 19.4328 22.9988 15.0752ZM32.9506 61.2952C32.8723 61.2567 32.7945 61.2168 32.7172 61.1755C12.6399 50.4287 14.7296 32.9067 21.2006 18.7327C27.211 23.4191 31.9622 30.7419 32.1875 41.8238C32.2496 44.8805 32.35 47.6951 32.4996 50.2855C32.3396 52.4664 32.3091 54.6302 32.4291 56.7355C32.5164 58.2664 32.685 59.7943 32.9506 61.2952ZM51.3416 18.0912C57.9476 32.2127 60.2491 49.9108 39.9734 61.1222C39.3082 61.49 38.5989 61.7509 37.8711 61.9043C37.741 61.2789 37.6181 60.6192 37.5027 59.9231C37.0511 57.2008 36.7288 54.0262 36.5085 50.3189C37.1288 42.4059 39.5767 34.178 42.6875 28.0738C44.8822 23.7673 47.9501 20.517 51.3416 18.0912Z" fill="#EF8202"/>
</svg>
