<svg width="71" height="84" viewBox="0 0 71 84" fill="none" xmlns="http://www.w3.org/2000/svg">
<path d="M56.4995 78.8238C36.9995 78.8238 32.4995 72.5738 31.8745 41.8238C31.4044 18.6934 11.2172 11.9399 1.01668 11.3531C13.1245 36.9488 1.66219 45.2674 4.87453 60.1988C11.6245 91.5738 45.1245 84.4488 56.4995 78.8238Z" fill="#3B323D"/>
<path d="M42.3745 28.0738C48.9995 15.0738 63.5828 11.6988 70.9995 11.5738C60.9995 20.2738 64.9162 42.2821 68.1245 52.1988C71.3328 62.1154 65.9745 78.1988 50.3745 75.6988C30.8745 72.5738 34.5015 43.5228 42.3745 28.0738Z" fill="#3B323D"/>
<path fill-rule="evenodd" clip-rule="evenodd" d="M22.6858 15.0752C25.0406 10.5986 27.7047 6.58772 30.0306 3.41106C33.0965 -0.776339 39.0148 -0.798874 42.1045 3.37096C44.3559 6.40927 46.9182 10.2173 49.2082 14.4738C45.1581 17.2567 41.4516 21.0752 38.8106 26.2575C37.4641 28.8999 36.2329 31.9082 35.2006 35.1185C33.4569 25.9296 28.558 19.4328 22.6858 15.0752ZM32.6377 61.2952C32.5593 61.2567 32.4815 61.2168 32.4042 61.1755C12.327 50.4287 14.4166 32.9067 20.8877 18.7327C26.8981 23.4191 31.6492 30.7419 31.8745 41.8238C31.9366 44.8805 32.037 47.6951 32.1867 50.2855C32.0266 52.4664 31.9961 54.6302 32.1161 56.7355C32.2035 58.2664 32.372 59.7943 32.6377 61.2952ZM51.0287 18.0912C57.6347 32.2127 59.9362 49.9108 39.6604 61.1222C38.9952 61.49 38.2859 61.7509 37.5581 61.9043C37.428 61.2789 37.3052 60.6192 37.1897 59.9231C36.7382 57.2008 36.4159 54.0262 36.1955 50.3189C36.8158 42.4059 39.2637 34.178 42.3745 28.0738C44.5692 23.7673 47.6372 20.517 51.0287 18.0912Z" fill="#3B323D"/>
</svg>
