<svg width="71" height="84" viewBox="0 0 71 84" fill="none" xmlns="http://www.w3.org/2000/svg">
<path d="M56.125 78.8238C36.625 78.8238 32.125 72.5738 31.5 41.8238C31.0299 18.6934 10.8426 11.9399 0.642151 11.3531C12.75 36.9488 1.28767 45.2674 4.5 60.1988C11.25 91.5738 44.75 84.4488 56.125 78.8238Z" fill="white"/>
<path d="M42 28.0738C48.6249 15.0738 63.2083 11.6988 70.625 11.5738C60.625 20.2738 64.5416 42.2821 67.75 52.1988C70.9583 62.1154 65.6 78.1988 50 75.6988C30.5 72.5738 34.1269 43.5228 42 28.0738Z" fill="white"/>
<path fill-rule="evenodd" clip-rule="evenodd" d="M22.3113 15.0752C24.666 10.5986 27.3302 6.58772 29.6561 3.41106C32.722 -0.776339 38.6402 -0.798874 41.73 3.37096C43.9813 6.40927 46.5437 10.2173 48.8337 14.4738C44.7836 17.2567 41.0771 21.0752 38.4361 26.2575C37.0896 28.8999 35.8583 31.9082 34.826 35.1185C33.0823 25.9296 28.1835 19.4328 22.3113 15.0752ZM32.2631 61.2952C32.1848 61.2567 32.107 61.2168 32.0297 61.1755C11.9524 50.4287 14.0421 32.9067 20.5131 18.7327C26.5235 23.4191 31.2747 30.7419 31.5 41.8238C31.5621 44.8805 31.6625 47.6951 31.8121 50.2855C31.6521 52.4664 31.6216 54.6302 31.7416 56.7355C31.8289 58.2664 31.9975 59.7943 32.2631 61.2952ZM50.6541 18.0912C57.2601 32.2127 59.5616 49.9108 39.2859 61.1222C38.6207 61.49 37.9114 61.7509 37.1836 61.9043C37.0535 61.2789 36.9306 60.6192 36.8152 59.9231C36.3636 57.2008 36.0413 54.0262 35.821 50.3189C36.4413 42.4059 38.8892 34.178 42 28.0738C44.1947 23.7673 47.2626 20.517 50.6541 18.0912Z" fill="white"/>
</svg>
