<svg width="518" height="613" viewBox="0 0 518 613" fill="none" xmlns="http://www.w3.org/2000/svg">
<path d="M411.65 576.249C268.627 576.249 235.621 530.409 231.037 304.872C227.589 135.222 79.5255 85.6883 4.70987 81.3842C93.5151 269.116 9.44442 330.129 33.0053 439.644C82.5133 669.764 328.22 617.506 411.65 576.249Z" fill="white"/>
<path d="M308.049 204.023C356.64 108.674 463.602 83.9199 518 83.0031C444.655 146.813 473.382 308.234 496.913 380.968C520.445 453.702 481.144 571.665 366.726 553.329C223.703 530.409 250.305 317.334 308.049 204.023Z" fill="white"/>
<path fill-rule="evenodd" clip-rule="evenodd" d="M163.642 108.684C180.913 75.8509 200.453 46.4328 217.512 23.1335C240 -7.57902 283.407 -7.74433 306.069 22.8394C322.582 45.1239 341.375 73.0539 358.171 104.273C328.466 124.685 301.281 152.691 281.91 190.701C272.034 210.082 263.004 232.147 255.432 255.693C242.643 188.296 206.712 140.645 163.642 108.684ZM236.635 447.686C236.06 447.404 235.489 447.111 234.922 446.807C87.665 367.985 102.992 239.47 150.454 135.51C194.537 169.883 229.385 223.592 231.037 304.872C231.493 327.292 232.229 347.937 233.327 366.937C232.153 382.932 231.929 398.802 232.81 414.243C233.45 425.471 234.686 436.677 236.635 447.686ZM371.523 130.806C419.975 234.38 436.855 364.187 288.143 446.417C283.264 449.115 278.061 451.028 272.724 452.153C271.77 447.566 270.868 442.727 270.021 437.622C266.71 417.656 264.346 394.372 262.73 367.182C267.279 309.143 285.233 248.795 308.05 204.022C324.147 172.437 346.649 148.598 371.523 130.806Z" fill="white"/>
</svg>
